# xmcd CD database file
#
# Track frame offsets:
#	150
#	23178
#	42789
#	65664
#	89664
#	102747
#	126335
#	148656
#	165711
#	213981
#
# Disc length: 3187 seconds
#
# Revision: 0
# Processed by: cddbd v1.5.2PL0 Copyright (c) Steve Scherf et al.
# Submitted via: CDex 1.77
#
DISCID=970c710a
DTITLE=Midori Takada - Lunar Cruise
DYEAR=1990
DGENRE=Jazz
TTITLE0=Nahm
TTITLE1=Ancient Palace
TTITLE2=A Vanished Illusion
TTITLE3=Jyomuran
TTITLE4=Monody
TTITLE5=In "D"
TTITLE6=Madrone
TTITLE7=Change-Dra
TTITLE8=Lunar Cruise
TTITLE9=
EXTD=YEAR: 1990
EXTT0=
EXTT1=
EXTT2=
EXTT3=
EXTT4=
EXTT5=
EXTT6=
EXTT7=
EXTT8=
EXTT9=
PLAYORDER=
